<?xml version="1.0" encoding="utf-8"?>
<!-- Generator: Adobe Illustrator 24.0.1, SVG Export Plug-In . SVG Version: 6.00 Build 0)  -->
<svg version="1.1" xmlns="http://www.w3.org/2000/svg" xmlns:xlink="http://www.w3.org/1999/xlink" x="0px" y="0px"
	 viewBox="0 0 100 100" style="enable-background:new 0 0 100 100;" xml:space="preserve">
<style type="text/css">
	.st0{fill:#545554;}
	.st1{display:none;}
	.st2{display:inline;}
	.st3{display:inline;fill-rule:evenodd;clip-rule:evenodd;fill:#545554;}
</style>
<g id="Telegram">
	<g id="XMLID_496_">
		<g>
			<path id="XMLID_9_" class="st0" d="M1.77,48.21l23.04,8.6l8.92,28.68c0.57,1.84,2.82,2.52,4.31,1.3l12.84-10.47
				c1.35-1.1,3.26-1.15,4.67-0.13l23.17,16.82c1.6,1.16,3.85,0.29,4.25-1.64L99.94,9.74c0.44-2.11-1.63-3.86-3.64-3.09L1.74,43.13
				C-0.59,44.03-0.57,47.34,1.77,48.21z M32.29,52.24L77.32,24.5c0.81-0.5,1.64,0.6,0.95,1.24L41.1,60.29
				c-1.31,1.22-2.15,2.84-2.39,4.61l-1.27,9.38c-0.17,1.25-1.93,1.38-2.27,0.16l-4.87-17.11C29.75,55.39,30.56,53.3,32.29,52.24z"/>
		</g>
	</g>
</g>
<g id="Discord" class="st1">
	<g class="st2">
		<g>
			<path class="st0" d="M84.71,17.78c-6.47-3.03-13.39-5.23-20.63-6.48c-0.89,1.61-1.93,3.77-2.64,5.49
				c-7.69-1.16-15.31-1.16-22.86,0c-0.72-1.72-1.78-3.88-2.67-5.49c-7.24,1.25-14.17,3.46-20.65,6.5
				C2.19,37.52-1.35,56.76,0.42,75.73c8.66,6.47,17.05,10.4,25.3,12.97c2.04-2.8,3.85-5.78,5.42-8.93
				c-2.98-1.13-5.84-2.53-8.53-4.15c0.72-0.53,1.42-1.08,2.09-1.65c16.45,7.7,34.33,7.7,50.59,0c0.68,0.57,1.38,1.12,2.09,1.65
				c-2.71,1.63-5.57,3.03-8.55,4.16c1.57,3.13,3.37,6.12,5.42,8.92c8.26-2.57,16.66-6.5,25.32-12.97
				C101.65,53.74,96.03,34.68,84.71,17.78z M33.39,64.07c-4.94,0-8.99-4.61-8.99-10.23s3.96-10.23,8.99-10.23
				c5.03,0,9.08,4.61,8.99,10.23C42.39,59.46,38.41,64.07,33.39,64.07z M66.61,64.07c-4.94,0-8.99-4.61-8.99-10.23
				s3.96-10.23,8.99-10.23c5.03,0,9.08,4.61,8.99,10.23C75.6,59.46,71.64,64.07,66.61,64.07z"/>
		</g>
	</g>
</g>
<g id="Github" class="st1">
	<path class="st3" d="M50,1.23c-27.62,0-50,22.38-50,50c0,22.12,14.31,40.81,34.19,47.44c2.5,0.44,3.44-1.06,3.44-2.38
		c0-1.19-0.06-5.12-0.06-9.31C25,89.3,21.75,83.92,20.75,81.11c-0.56-1.44-3-5.88-5.12-7.06c-1.75-0.94-4.25-3.25-0.06-3.31
		c3.94-0.06,6.75,3.62,7.69,5.12c4.5,7.56,11.69,5.44,14.56,4.13c0.44-3.25,1.75-5.44,3.19-6.69c-11.12-1.25-22.75-5.56-22.75-24.69
		c0-5.44,1.94-9.94,5.12-13.44c-0.5-1.25-2.25-6.37,0.5-13.25c0,0,4.19-1.31,13.75,5.12c4-1.12,8.25-1.69,12.5-1.69
		c4.25,0,8.5,0.56,12.5,1.69c9.56-6.5,13.75-5.12,13.75-5.12c2.75,6.88,1,12,0.5,13.25c3.19,3.5,5.12,7.94,5.12,13.44
		C82,67.8,70.31,72.05,59.19,73.3c1.81,1.56,3.38,4.56,3.38,9.25c0,6.69-0.06,12.06-0.06,13.75c0,1.31,0.94,2.88,3.44,2.38
		C85.69,92.05,100,73.3,100,51.23C100,23.61,77.62,1.23,50,1.23z"/>
</g>
<g id="email" class="st1">
	<g class="st2">
		<g>
			<path class="st0" d="M1.94,18.21C0.71,20.13,0,22.41,0,24.86v50.29c0,2.15,0.55,4.16,1.51,5.92l31.27-36.33L1.94,18.21z"/>
			<path class="st0" d="M93.57,14.02c-1.76-0.97-3.77-1.51-5.92-1.51h-75.3c-2.15,0-4.16,0.55-5.92,1.51L50,51.52L93.57,14.02z"/>
			<path class="st0" d="M98.06,18.21L67.23,44.74l31.27,36.32c0.96-1.76,1.51-3.78,1.51-5.92V24.86
				C100,22.41,99.29,20.13,98.06,18.21z"/>
			<path class="st0" d="M51.98,57.85c-1.14,0.97-2.82,0.97-3.96,0L37.4,48.72L5.7,85.55c1.92,1.23,4.2,1.94,6.65,1.94h75.3
				c2.45,0,4.73-0.71,6.65-1.94l-31.7-36.83L51.98,57.85z"/>
		</g>
	</g>
</g>
</svg>
